# Blender 3.5.1
# www.blender.org
mtllib lod_1.mtl
o pine2_LOD1
v -0.711772 0.000000 0.711772
v 0.163085 9.547739 0.190462
v -0.711772 -0.000000 -0.711772
v -0.190463 9.547739 0.163083
v 0.711772 0.000000 0.711772
v 0.190463 9.547739 -0.163087
v 0.711772 -0.000000 -0.711772
v -0.163085 9.547739 -0.190465
v 0.336374 8.481597 -0.955963
v 0.555570 8.325850 -0.831471
v 0.707107 8.503281 -0.707108
v 0.952414 8.441656 -0.214724
v 1.000000 8.358047 -0.000002
v 0.945786 8.540421 0.344419
v 0.831470 8.397443 0.555569
v 0.664637 8.492373 0.754119
v 0.342334 8.408893 0.946920
v -0.000000 8.546946 0.999998
v -0.195091 8.300190 0.980784
v -0.556178 8.461821 0.853144
v -0.825996 8.377850 0.609928
v -0.922318 8.251019 0.370486
v 0.000000 10.445542 -0.000002
v -1.009865 8.527753 -0.142233
v -0.724552 8.519728 -0.689941
v -0.295723 8.303756 -0.978795
v 0.284957 6.859907 -1.432575
v 0.710244 6.902524 -1.290415
v 1.289634 7.116386 -0.730882
v 1.465494 6.927106 -0.153965
v 1.271178 6.951901 0.743156
v 0.811488 7.127978 1.214476
v 0.337094 7.042039 1.435695
v -0.561253 6.992650 1.340127
v -1.310547 7.019291 0.719900
v -0.000000 9.912126 -0.000002
v -1.454331 7.087855 -0.010208
v -1.227085 6.966309 -0.786614
v -0.900058 6.947224 -1.173790
v -0.558961 6.896706 -1.349457
v -0.093038 7.081374 -1.464874
v 0.391230 5.043010 -1.966846
v 0.902782 5.160676 -1.801156
v 1.550637 5.098886 -1.290171
v 1.923871 5.081078 -0.608865
v 2.000563 5.069153 0.251955
v 1.827867 5.105566 0.828261
v 1.420786 5.136870 1.412739
v 0.772423 5.159441 1.844105
v -0.039876 5.091136 2.013872
v -0.760247 5.118385 1.853238
v -1.418017 5.154519 1.418015
v -1.933758 5.069516 0.556491
v -0.000000 9.131733 -0.000002
v -2.005131 5.092777 0.001929
v -1.852727 5.132926 -0.767428
v -1.560055 5.124000 -1.280296
v -0.943474 5.060652 -1.792230
v -0.313627 5.127679 -1.994494
v -0.000000 2.905530 -2.593940
v 0.998292 2.816665 -2.392322
v 1.835048 2.891791 -1.826865
v 2.396488 2.830916 -0.992658
v 2.594526 2.905015 0.367169
v 2.108724 2.826179 1.566857
v 1.208247 2.953803 2.308772
v 0.296528 2.915536 2.594325
v -0.744098 2.924196 2.502139
v -1.851251 2.935429 1.856715
v -2.489606 2.895671 0.770126
v -0.000000 8.055045 -0.000001
v -2.580868 2.888965 -0.335519
v -2.396487 2.836584 -0.992661
v -2.156781 2.926946 -1.441119
v -1.303037 2.836637 -2.303185
vn 0.6548 0.4185 -0.6294
vn 0.2432 0.4088 -0.8796
vn 0.8277 0.4318 -0.3583
vn 0.9014 0.4318 -0.0316
vn 0.8985 0.4304 -0.0865
vn 0.6378 0.4319 0.6377
vn 0.7804 0.4379 0.4464
vn 0.3734 0.4420 0.8156
vn 0.3092 0.4432 0.8414
vn -0.5604 0.3860 0.7328
vn -0.1284 0.4220 0.8975
vn -0.6723 0.4434 0.5928
vn -0.9024 0.4044 0.1488
vn -0.8346 0.4124 0.3651
vn -0.7905 0.4473 -0.4183
vn -0.3459 0.4291 -0.8344
vn -0.0867 0.4240 -0.9015
vn 0.3222 0.4267 -0.8450
vn 0.2470 0.4305 -0.8681
vn 0.5365 0.4363 -0.7223
vn 0.8880 0.4424 -0.1255
vn 0.8866 0.4260 0.1803
vn 0.7189 0.4432 0.5356
vn 0.3076 0.4543 0.8361
vn -0.1189 0.4330 0.8935
vn -0.5661 0.4313 0.7025
vn -0.8689 0.4467 0.2131
vn -0.8433 0.4354 -0.3150
vn -0.6754 0.4395 -0.5922
vn -0.3602 0.4359 -0.8248
vn -0.3753 0.4357 -0.8181
vn 0.0878 0.4386 -0.8944
vn 0.1834 0.4403 -0.8789
vn 0.5811 0.4420 -0.6833
vn 0.7924 0.4399 -0.4226
vn 0.8965 0.4369 -0.0738
vn 0.8669 0.4413 0.2319
vn 0.7472 0.4414 0.4968
vn 0.5075 0.4420 0.7396
vn 0.1481 0.4400 0.8857
vn -0.1795 0.4402 0.8797
vn -0.4782 0.4412 0.7594
vn -0.7907 0.4354 0.4304
vn -0.8877 0.4408 0.1327
vn -0.8853 0.4394 -0.1524
vn -0.7744 0.4451 -0.4497
vn -0.5463 0.4403 -0.7125
vn -0.9694 0.0664 0.2362
vn -0.9694 0.0665 0.2362
vn -0.3165 0.4427 -0.8390
vn 0.2153 0.4393 -0.8722
vn 0.4758 0.4388 -0.7623
vn 0.7597 0.4396 -0.4792
vn 0.8869 0.4359 -0.1529
vn 0.8220 0.4399 0.3618
vn 0.6068 0.4426 0.6603
vn 0.2501 0.4478 0.8585
vn -0.0753 0.4459 0.8919
vn -0.4480 0.4435 0.7762
vn -0.7802 0.4425 0.4422
vn -0.8942 0.4421 0.0711
vn -0.8529 0.4439 -0.2747
vn -0.8239 0.4451 -0.3507
vn -0.6138 0.4420 -0.6542
vn -0.2177 0.4391 -0.8717
vn -0.2362 0.0664 -0.9694
vn -0.2362 0.0665 -0.9694
vn 0.9694 0.0664 -0.2362
vn 0.9694 0.0665 -0.2362
vn 0.2362 0.0664 0.9694
vn 0.2362 0.0665 0.9694
vn -0.0000 -1.0000 -0.0000
vn -0.0000 1.0000 -0.0000
vn 0.0143 -0.9999 -0.0005
vn -0.0015 -1.0000 0.0068
vn -0.0078 -0.9996 0.0257
vn -0.0059 -0.9999 0.0115
vn -0.0058 -0.9999 0.0115
vn -0.0077 -0.9996 0.0257
vn -0.0078 -0.9996 0.0256
vt 0.820312 0.441406
vt 0.820312 0.441406
vt 0.820312 0.441406
vt 0.820312 0.441406
vt 0.820312 0.441406
vt 0.820312 0.441406
vt 0.820312 0.441406
vt 0.820312 0.441406
vt 0.910156 0.800781
vt 0.910156 0.800781
vt 0.910156 0.800781
vt 0.910156 0.800781
vt 0.910156 0.800781
vt 0.910156 0.800781
vt 0.910156 0.800781
vt 0.910156 0.800781
vt 0.910156 0.800781
vt 0.910156 0.800781
vt 0.910156 0.800781
vt 0.910156 0.800781
vt 0.910156 0.800781
vt 0.910156 0.800781
vt 0.910156 0.800781
vt 0.910156 0.800781
vt 0.910156 0.800781
vt 0.910156 0.800781
vt 0.910156 0.800781
vt 0.910156 0.800781
vt 0.910156 0.800781
vt 0.910156 0.800781
vt 0.910156 0.800781
vt 0.910156 0.800781
vt 0.910156 0.800781
vt 0.910156 0.800781
vt 0.910156 0.800781
vt 0.910156 0.800781
vt 0.910156 0.800781
vt 0.910156 0.800781
vt 0.910156 0.800781
vt 0.910156 0.800781
vt 0.910156 0.800781
vt 0.910156 0.800781
vt 0.910156 0.800781
vt 0.910156 0.800781
vt 0.910156 0.800781
vt 0.910156 0.800781
vt 0.910156 0.800781
vt 0.910156 0.800781
vt 0.910156 0.800781
vt 0.910156 0.800781
vt 0.910156 0.800781
vt 0.910156 0.800781
vt 0.910156 0.800781
vt 0.910156 0.800781
vt 0.910156 0.800781
vt 0.910156 0.800781
vt 0.910156 0.800781
vt 0.910156 0.800781
vt 0.910156 0.800781
vt 0.910156 0.800781
vt 0.910156 0.800781
vt 0.910156 0.800781
vt 0.910156 0.800781
vt 0.910156 0.800781
vt 0.910156 0.800781
vt 0.910156 0.800781
vt 0.910156 0.800781
vt 0.910156 0.800781
vt 0.910156 0.800781
vt 0.910156 0.800781
vt 0.910156 0.800781
vt 0.910156 0.800781
vt 0.910156 0.800781
vt 0.910156 0.800781
vt 0.910156 0.800781
s 1
usemtl palette.001
f 9/9/1 23/23/1 10/10/1
f 10/10/2 23/23/2 11/11/2
f 11/11/3 23/23/3 12/12/3
f 12/12/4 23/23/4 13/13/4
f 13/13/5 23/23/5 14/14/5
f 14/14/6 23/23/6 15/15/6
f 15/15/7 23/23/7 16/16/7
f 16/16/8 23/23/8 17/17/8
f 17/17/9 23/23/9 18/18/9
f 18/18/10 23/23/10 19/19/10
f 19/19/11 23/23/11 20/20/11
f 20/20/12 23/23/12 21/21/12
f 21/21/13 23/23/13 22/22/13
f 22/22/14 23/23/14 24/24/14
f 24/24/15 23/23/15 25/25/15
f 25/25/16 23/23/16 26/26/16
f 26/26/17 23/23/17 9/9/17
f 41/41/18 36/36/18 27/27/18
f 27/27/19 36/36/19 28/28/19
f 28/28/20 36/36/20 29/29/20
f 29/29/21 36/36/21 30/30/21
f 30/30/22 36/36/22 31/31/22
f 31/31/23 36/36/23 32/32/23
f 32/32/24 36/36/24 33/33/24
f 33/33/25 36/36/25 34/34/25
f 34/34/26 36/36/26 35/35/26
f 35/35/27 36/36/27 37/37/27
f 37/37/28 36/36/28 38/38/28
f 38/38/29 36/36/29 39/39/29
f 39/39/30 36/36/30 40/40/30
f 40/40/31 36/36/31 41/41/31
f 59/59/32 54/54/32 42/42/32
f 42/42/33 54/54/33 43/43/33
f 43/43/34 54/54/34 44/44/34
f 44/44/35 54/54/35 45/45/35
f 45/45/36 54/54/36 46/46/36
f 46/46/37 54/54/37 47/47/37
f 47/47/38 54/54/38 48/48/38
f 48/48/39 54/54/39 49/49/39
f 49/49/40 54/54/40 50/50/40
f 50/50/41 54/54/41 51/51/41
f 51/51/42 54/54/42 52/52/42
f 52/52/43 54/54/43 53/53/43
f 53/53/44 54/54/44 55/55/44
f 55/55/45 54/54/45 56/56/45
f 56/56/46 54/54/46 57/57/46
f 57/57/47 54/54/47 58/58/47
f 4/4/48 1/1/49 2/2/48
f 58/58/50 54/54/50 59/59/50
f 60/60/51 71/71/51 61/61/51
f 61/61/52 71/71/52 62/62/52
f 62/62/53 71/71/53 63/63/53
f 63/63/54 71/71/54 64/64/54
f 64/64/55 71/71/55 65/65/55
f 65/65/56 71/71/56 66/66/56
f 66/66/57 71/71/57 67/67/57
f 67/67/58 71/71/58 68/68/58
f 68/68/59 71/71/59 69/69/59
f 69/69/60 71/71/60 70/70/60
f 70/70/61 71/71/61 72/72/61
f 72/72/62 71/71/62 73/73/62
f 73/73/63 71/71/63 74/74/63
f 74/74/64 71/71/64 75/75/64
f 75/75/65 71/71/65 60/60/65
f 8/8/66 3/3/67 4/4/66
f 6/6/68 7/7/69 8/8/68
f 2/2/70 5/5/71 6/6/70
f 3/3/72 5/5/72 1/1/72
f 8/8/73 2/2/73 6/6/73
f 19/19/74 22/22/74 12/12/74
f 49/49/75 56/56/75 42/42/75
f 38/38/76 40/40/76 27/27/76
f 73/73/77 62/62/78 66/66/77
f 4/4/48 3/3/49 1/1/49
f 8/8/66 7/7/67 3/3/67
f 6/6/68 5/5/69 7/7/69
f 2/2/70 1/1/71 5/5/71
f 3/3/72 7/7/72 5/5/72
f 8/8/73 4/4/73 2/2/73
f 24/24/74 25/25/74 22/22/74
f 25/25/74 26/26/74 9/9/74
f 22/22/74 25/25/74 12/12/74
f 9/9/74 10/10/74 25/25/74
f 10/10/74 11/11/74 12/12/74
f 12/12/74 13/13/74 14/14/74
f 14/14/74 15/15/74 12/12/74
f 15/15/74 16/16/74 17/17/74
f 12/12/74 15/15/74 18/18/74
f 17/17/74 18/18/74 15/15/74
f 18/18/74 19/19/74 12/12/74
f 19/19/74 20/20/74 22/22/74
f 20/20/74 21/21/74 22/22/74
f 12/12/74 25/25/74 10/10/74
f 45/45/75 46/46/75 47/47/75
f 47/47/75 48/48/75 49/49/75
f 49/49/75 50/50/75 51/51/75
f 51/51/75 52/52/75 55/55/75
f 52/52/75 53/53/75 55/55/75
f 55/55/75 56/56/75 49/49/75
f 51/51/75 55/55/75 49/49/75
f 56/56/75 57/57/75 59/59/75
f 57/57/75 58/58/75 59/59/75
f 59/59/75 42/42/75 56/56/75
f 42/42/75 43/43/75 44/44/75
f 44/44/75 45/45/75 47/47/75
f 47/47/75 49/49/75 42/42/75
f 42/42/75 44/44/75 47/47/75
f 41/41/76 27/27/76 40/40/76
f 27/27/76 28/28/79 29/29/76
f 30/30/76 27/27/76 29/29/76
f 30/30/76 31/31/76 32/32/80
f 32/32/80 33/33/76 34/34/79
f 34/34/79 35/35/76 37/37/76
f 37/37/76 38/38/76 34/34/79
f 38/38/76 39/39/76 40/40/76
f 38/38/76 27/27/76 34/34/79
f 27/27/76 30/30/76 32/32/80
f 34/34/79 27/27/76 32/32/80
f 61/61/77 62/62/78 60/60/77
f 62/62/78 63/63/77 66/66/77
f 60/60/77 62/62/78 74/74/78
f 63/63/77 64/64/77 66/66/77
f 64/64/77 65/65/77 66/66/77
f 66/66/77 67/67/78 68/68/78
f 68/68/78 69/69/77 70/70/78
f 73/73/77 70/70/78 72/72/78
f 68/68/78 70/70/78 73/73/77
f 73/73/77 74/74/78 62/62/78
f 74/74/78 75/75/77 60/60/77
f 66/66/77 68/68/78 73/73/77
