# Blender 3.5.1
# www.blender.org
mtllib lod_2.mtl
o pine2_LOD2
v -0.711772 -0.000000 0.711772
v -0.711772 -0.000000 -0.711772
v -0.080934 9.553869 -0.135241
v 0.711772 -0.000000 0.711772
v 0.080934 9.553869 0.135242
v 0.711772 -0.000000 -0.711772
v 0.517671 8.387071 -0.910074
v 0.952414 8.441656 -0.214722
v 0.957997 8.447409 0.388936
v 0.619026 8.452676 0.786602
v -0.059959 8.442651 1.036242
v -0.688182 8.462309 0.779328
v -1.025946 8.302870 0.208568
v 0.000000 10.445542 0.000001
v -0.683678 8.518673 -0.734501
v 0.195985 6.874779 -1.492816
v 1.289634 7.116386 -0.730880
v 1.517189 6.883876 0.197683
v 0.687316 7.127524 1.326973
v -0.561253 6.992649 1.340129
v -1.465062 7.079972 0.383689
v -0.000000 9.912126 0.000001
v -0.967855 6.922021 -1.189482
v 0.707517 5.076149 -1.901372
v 1.797818 5.084383 -1.020131
v 1.957949 5.092338 0.550364
v 1.076839 5.160804 1.730400
v -0.420210 5.100253 1.996580
v -1.418017 5.154519 1.418016
v -2.006580 5.088468 0.283777
v -0.000000 9.131733 0.000001
v -1.733262 5.139482 -1.076263
v -0.510841 5.119211 -1.973836
v 0.310806 2.889155 -2.611581
v 2.145430 2.859265 -1.570678
v 2.594526 2.905015 0.367170
v 1.639701 2.928011 2.078100
v -0.306769 2.918476 2.642415
v -2.257287 2.912593 1.459235
v -0.000000 8.055045 0.000001
v -2.547996 2.851992 -0.610650
v -1.774778 2.926925 -1.959485
vn 0.7569 0.4139 -0.5057
vn 0.9026 0.4303 -0.0124
vn 0.6858 0.4414 0.5787
vn 0.3059 0.4302 0.8493
vn -0.3277 0.4419 0.8351
vn -0.8244 0.4305 0.3676
vn -0.9927 0.0740 0.0949
vn -0.9927 0.0739 0.0949
vn -0.8863 0.4020 -0.2297
vn -0.0924 0.3831 -0.9191
vn 0.4561 0.4161 -0.7867
vn 0.8916 0.4396 -0.1084
vn 0.7727 0.4183 0.4775
vn -0.0361 0.4226 0.9056
vn -0.6407 0.4186 0.6436
vn -0.8604 0.4027 -0.3124
vn -0.2129 0.4199 -0.8823
vn 0.0688 0.4333 -0.8986
vn 0.5659 0.4289 -0.7042
vn 0.9008 0.4238 -0.0940
vn 0.7359 0.4282 0.5246
vn 0.1415 0.4275 0.8929
vn -0.4336 0.4358 0.7887
vn -0.8112 0.4304 0.3959
vn -0.8884 0.4295 -0.1624
vn -0.5304 0.4276 -0.7320
vn 0.4522 0.4239 -0.7848
vn 0.8785 0.4273 -0.2137
vn 0.7910 0.4296 0.4357
vn 0.2493 0.4312 0.8671
vn -0.4702 0.4258 0.7731
vn -0.8975 0.4262 0.1136
vn -0.7904 0.4374 -0.4288
vn -0.2635 0.4226 -0.8672
vn 0.0004 -1.0000 0.0067
vn 0.9927 0.0740 -0.0949
vn 0.9927 0.0739 -0.0949
vn -0.0000 0.0602 -0.9982
vn -0.0000 -1.0000 -0.0000
vn -0.0000 0.0602 0.9982
vn 0.0159 -0.9999 0.0009
vn -0.0068 -0.9999 0.0080
vn -0.0069 -0.9999 0.0080
vn -0.0003 -0.9993 0.0384
vn -0.0002 -0.9993 0.0384
vn -0.9927 0.0739 0.0948
vn 0.0004 -1.0000 0.0068
vn 0.0003 -1.0000 0.0067
vn 0.9927 0.0739 -0.0948
vn 0.0159 -0.9999 0.0010
vt 0.820312 0.441406
vt 0.820312 0.441406
vt 0.820312 0.441406
vt 0.820312 0.441406
vt 0.820312 0.441406
vt 0.820312 0.441406
vt 0.910156 0.800781
vt 0.910156 0.800781
vt 0.910156 0.800781
vt 0.910156 0.800781
vt 0.910156 0.800781
vt 0.910156 0.800781
vt 0.910156 0.800781
vt 0.910156 0.800781
vt 0.910156 0.800781
vt 0.910156 0.800781
vt 0.910156 0.800781
vt 0.910156 0.800781
vt 0.910156 0.800781
vt 0.910156 0.800781
vt 0.910156 0.800781
vt 0.910156 0.800781
vt 0.910156 0.800781
vt 0.910156 0.800781
vt 0.910156 0.800781
vt 0.910156 0.800781
vt 0.910156 0.800781
vt 0.910156 0.800781
vt 0.910156 0.800781
vt 0.910156 0.800781
vt 0.910156 0.800781
vt 0.910156 0.800781
vt 0.910156 0.800781
vt 0.910156 0.800781
vt 0.910156 0.800781
vt 0.910156 0.800781
vt 0.910156 0.800781
vt 0.910156 0.800781
vt 0.910156 0.800781
vt 0.910156 0.800781
vt 0.910156 0.800781
vt 0.910156 0.800781
s 1
usemtl palette.001
f 7/7/1 14/14/1 8/8/1
f 8/8/2 14/14/2 9/9/2
f 9/9/3 14/14/3 10/10/3
f 10/10/4 14/14/4 11/11/4
f 11/11/5 14/14/5 12/12/5
f 12/12/6 14/14/6 13/13/6
f 1/1/7 3/3/8 2/2/7
f 13/13/9 14/14/9 15/15/9
f 15/15/10 14/14/10 7/7/10
f 16/16/11 22/22/11 17/17/11
f 17/17/12 22/22/12 18/18/12
f 18/18/13 22/22/13 19/19/13
f 19/19/14 22/22/14 20/20/14
f 20/20/15 22/22/15 21/21/15
f 21/21/16 22/22/16 23/23/16
f 23/23/17 22/22/17 16/16/17
f 33/33/18 31/31/18 24/24/18
f 24/24/19 31/31/19 25/25/19
f 25/25/20 31/31/20 26/26/20
f 26/26/21 31/31/21 27/27/21
f 27/27/22 31/31/22 28/28/22
f 28/28/23 31/31/23 29/29/23
f 29/29/24 31/31/24 30/30/24
f 30/30/25 31/31/25 32/32/25
f 32/32/26 31/31/26 33/33/26
f 34/34/27 40/40/27 35/35/27
f 35/35/28 40/40/28 36/36/28
f 36/36/29 40/40/29 37/37/29
f 37/37/30 40/40/30 38/38/30
f 38/38/31 40/40/31 39/39/31
f 39/39/32 40/40/32 41/41/32
f 41/41/33 40/40/33 42/42/33
f 42/42/34 40/40/34 34/34/34
f 37/37/35 38/38/35 41/41/35
f 6/6/36 5/5/37 4/4/36
f 3/3/38 6/6/38 2/2/38
f 1/1/39 6/6/39 4/4/39
f 5/5/40 1/1/40 4/4/40
f 15/15/41 8/8/41 10/10/41
f 32/32/42 33/33/43 29/29/42
f 20/20/44 17/17/45 19/19/45
f 1/1/7 5/5/46 3/3/8
f 39/39/35 41/41/35 38/38/35
f 41/41/35 42/42/35 34/34/35
f 36/36/47 34/34/35 35/35/48
f 41/41/35 34/34/35 36/36/47
f 36/36/47 37/37/35 41/41/35
f 6/6/36 3/3/49 5/5/37
f 1/1/39 2/2/39 6/6/39
f 12/12/41 13/13/50 15/15/41
f 15/15/41 7/7/50 8/8/41
f 8/8/41 9/9/41 10/10/41
f 10/10/41 11/11/41 12/12/41
f 12/12/41 15/15/41 10/10/41
f 33/33/43 24/24/42 29/29/42
f 24/24/42 25/25/42 26/26/42
f 29/29/42 24/24/42 26/26/42
f 26/26/42 27/27/42 29/29/42
f 27/27/42 28/28/43 29/29/42
f 29/29/42 30/30/42 32/32/42
f 21/21/45 23/23/45 20/20/44
f 23/23/45 16/16/45 20/20/44
f 16/16/45 17/17/45 20/20/44
f 17/17/45 18/18/45 19/19/45
